<svg xmlns="http://www.w3.org/2000/svg" width="666.667" height="666.667" version="1.0"
  viewBox="0 0 500 500">
  <path
    d="M0 250v250h500V0H0v250zm175-39.4v23.5l4.3-3.5c7.6-6.2 13-8.1 23.2-8.1 7.7 0 9.9.5 14.8 2.8 3.2 1.4 7.3 3.9 9 5.3 6.9 5.8 12.7 15.6 15.1 25.7l.7 2.8-8.6-.3-8.6-.3-2.3-5.6c-3.1-7.6-6.7-12.1-11.9-14.7-5.6-2.8-14.5-2.9-20.3-.3-5.1 2.3-10.6 8.7-13.1 15.4l-2 5.2-8.2.3-8.1.3V187h16v23.6zm104 .4v23.9l2.8-2.6c10.2-9.6 24.4-12.6 38.7-8.2 5.3 1.6 7.8 3.1 12 7.2 5.9 5.8 8.2 11.5 8.7 21.7l.2 5.5-8 .3-7.9.3-1.2-6.1c-2.1-11.1-8.3-16.2-19.8-16.4-4.7-.1-7.3.5-11.7 2.7-7.5 3.7-10.6 8-13.4 18.5-.3.9-2.5 1.2-8.6 1l-8.3-.3-.3-34.5c-.1-19 0-35.1.3-35.7.3-.9 2.9-1.3 8.5-1.3h8v24zm-101.9 82.4c4.9 13.2 20.8 19.8 32.6 13.7 5.1-2.5 10.7-9 12.9-14.8l1.7-4.3h8.4c9.8 0 9.6-.7 3.9 11.5-4.2 9-10.8 15.7-19.4 19.8-6.1 2.9-7.6 3.2-16.2 3.2-10.8 0-14.8-1.5-22.6-8.7l-4.4-4.1V321h-15v-33.1l8.1.3 8.1.3 1.9 4.9zM279 304.5V321h-17v-15.8c0-8.7.3-16.2.7-16.5.3-.4 4.2-.7 8.5-.7h7.8v16.5zm62.8.2.2 16.3h-17v-33.1l8.3.3 8.2.3.3 16.2z" />
</svg>