<svg xmlns="http://www.w3.org/2000/svg" id="Layer_1" data-name="Layer 1" viewBox="0 0 1500 1500"><defs><style>.cls-1{fill:#fff}</style></defs><path d="m1336.9 872.23-.12.19.36.09Z" class="cls-1"/><path d="m1335.81 871 1.09 1.25c.48-.82.23-1.25-1.09-1.25ZM177.21 534.87c4.19 2.51 8.29 5 11.52 6.1ZM177.21 534.87a79 79 0 0 0-11.63-6.15ZM211.88 501.48c.64 1.39 7 14.36 7.49 15ZM251.37 514.42c1.23-2.73 6.46-12.41 6.81-15ZM278.35 540.16l-2.46 1.5ZM278.35 540.16l13.2-8c-1.85.84-9.02 5.4-13.2 8ZM1376.87 798.41c22.45-.56 45.36-1 62.66-4Z" class="cls-1"/><path d="M158.09 1168.88c19.36 17 47.28 45.4 71.9 60.48 13.14 8 13.22 14 20.47 5.65 6.72-7.74 14-11.06 8.67-13.53 5.32.47 42.31-51.6 42.36-51.86 1.79-9.65-5.95-11.76-14.35-12a208.39 208.39 0 0 0 20-15c11.3 8.19 21.55 13.27 27.09 11 21.06-8.66 143.6-102.69 220.18-156 2.66 19.92 5.41 33.94 7.74 33.94 38.94 0 68.76-1.63 100.44-3.07 40.15 53.21 85.68 85.31 261.54 143.54 0 0 1.66-3.29 5-9.65 7.44 3.58 17.38 7.48 24.81 7.19-6.4 1.52-12.38-2.75-14.64.52-1.23 1.77-1.25 12.37-1.25 20.17 0 4-4.1 30.21-6 32.38-2.27 2.53-5.77 3.74-14 9.7-3.91 2.82-11.3 4.49-12.77 11.53-.56 2.68-3 9-2.39 12.09-2.84 4.58-6.42 21.81 9.59 21.12 22.16-1 57.32 9.12 73.71-8.16 23.64-24.91 26.59-37.65 42.62-65.83 4.87-8.56 22-40.16 6.12-43.56-5.16-1.1-5.44-4.49-10.72-2.63-1.29-3.46-6-6.25-15.14-11.88-14.45-8.93-46-31.72-44.18-10a162.28 162.28 0 0 0-16.41-8.67q2.52-4.62 5.3-9.66c-5.7-7.36-73-42.44-121.79-91.08l189.68-1.58c-6.44-20.63-84.31-162.91-166.07-290.26h2-2.07c-14.77-23-29.68-45.55-44.31-66.78 72.15 28.5 149.08 52.56 189.78 72.31 2 1 3.83-4.84 5.32-13.57 31.81 1.51 27.73 40.1 60.74 25a40.67 40.67 0 0 0 4.24 1.67l1.66.53 1 .7c7.55 5.06 40 18.79 55 22.44-6.19 17.72-14.28 34.76-20.26 58.88l21.45-16.23c0-2.65 11.64-37.1 15.78-50.7l1 .37c-5.9 16.28-11.8 32.08-16.13 50.33-9 11.45-32.86 20.49-17.76 23.09 46.36 8 171.53 45 199.56 45 3.16 0 21.33-10.53 24.07-14.44l-2.26-.59c6.28-4.81 16.32-48 22-72.13l20.36-1.29c-6.83.17-13.62.35-20.2.61 1.76-7.45 3.07-13 3.7-14.8a138.48 138.48 0 0 0 4.3-17c9.95-.38 19.61-1.17 23.79-2.51l-23.36 1.22c7.57-38.47 12.8-104.78 18.12-116 2.28-4.82-31.49-5.84-38.59-8.11-11-3.5-148.16-25.87-161.82-25.87-9.11 1.06-14.84 6.83-20.94 11.12-7.35 5.19-8.78 23.15-8.34 32.45a61.33 61.33 0 0 1-.07 6.17c-29.32-5.5-88.68-10.43-101.25 11.25a17.88 17.88 0 0 0-3.76 3.56c-.57.72-1.1 1.45-1.6 2.18-11.35-.72-23.17-.63-29.9-2.28 0 0-5.24 0-5.81-.05.53-7.79.8-13.14.8-13.14-30.46-10-154.93-62.76-246.24-105.09a3.23 3.23 0 0 0 1.28-.35h-2.09c-37.61-17.45-69.5-33.09-86.73-43.17-14.09-8.24-27.16-12.07-38.5-12.37.06-.46.12-.91.19-1.37 0-.15 0-.3.07-.46.06-.41.12-.82.19-1.23 0-.18.06-.36.09-.55.06-.38.13-.76.2-1.14 0-.2.08-.4.11-.6.07-.36.15-.72.22-1.07s.09-.43.14-.64.15-.68.23-1 .11-.44.17-.65.17-.65.25-1 .13-.44.19-.66.18-.62.28-.93l.21-.66c.1-.3.2-.6.31-.9s.15-.42.23-.64.23-.58.35-.86.16-.42.25-.62.25-.56.38-.84l.27-.58c.14-.28.29-.55.44-.83s.18-.35.28-.52l.52-.86.26-.42c.27-.41.55-.8.85-1.19a54.16 54.16 0 0 0 8.11-16.81c.23-1 .47-1.95.7-3 11.52 7.27 24.4 15 40.22 28.35 31.44 26.58 78 29.46 105.6-6.69 14.77-19.37 15.41-51.13 4.88-71.94-25.23-49.86-60.86-48.14-113-46.48-16.73.54-40.88-21.79-75.08-21.79-27.3 0-62.65 30-38.49 70.09.82-7.07 4.47-12.64 7.4-17.6 5.11-8.62 7.82-10.41 9.78-8.38a33.85 33.85 0 0 0-10.64 18.78c-3.66 18.22-12.49 39.7-14 54.74-1.68 16.57 4.21 25.8 14 34.65 4.29 3.85 4.09 8.71 3.94 12.85a60.41 60.41 0 0 1-1.41 9c-10.21 2-21 9.15-29.65 21.94-19.73 29.14-59.77 79.19-87.88 98.87-13.94 9.77-25.35 14.11-41.9 9.33-12.14-3.5-100.31-32.08-101.47-29.83-.37.71-.87 1.75-1.47 3.05-1.61-1-5.6-2-7.49-3.24-14.21-9.2-15.55-9.87-25.57-25.13-6.06-9.24-14.36-12.06-21.86-11.92-5.49-12.17-11.22-24.51-15.66-32.84-4.57-8.57-10.67-13.47-16.24-8.38-3.33 3-17.85 13.77-24.94 23.58-7.28 10.08-3.9 18.92.49 28.89-8.12 3.29-5.43 13.24-2.09 19.39 3.78 7 3.46-.85 3.77 9.36.12 4.06 9 7 10.36 13.11.59 2.66 12 13.43 14.47 14.1 1 1.84 2 3.71 3 5.65 10.43 19.26 17.37 13.28 28-1.42.68-.93 1.4-2 2.14-3.11 0 .51.35.78 1 .71 12.2-1.33 30.67 6.12 35.38 5.16 1.24-.25 8.78-20.68 12.93-28.79-7.38 16.87-21 51.09-17.19 52.36 37.31 12.37 44.82 14.21 119 32.85 39.39 9.9 61.56 11 85.13-10.23 11.77-10.6 23.39-21.43 34.87-32.15-1.26 49.49-1.41 106.62-1.59 147.81-78.53 65.62-288.18 270.51-283.2 277.15 2.07 2.74 4.74 5.93 7.84 9.38-7.46 6.34-14.92 13.65-19 19.44 1.11-4.25 2.5-8.22 2.79-11.48.11-1.15-42.57 1.38-49.26 1.73l-1.58-.62c-10.13-1.86-53.82-26.08-54.95-26.13-9.64-.45-15.63-.06-18.78 1.72-10.41 3.9-18.13 17-15.55 21.55 6.06 10.48 22.9 34.93 45.99 55.29Zm1124.74-310.52c21.52 4.86 41.43 9.58 47.85 12.47ZM1164.45 708.7c-4.13 21.77-10.12 39.49-16.23 56.48l3.52-18.43c6-23.07 15.89-61.36 22.85-90.76-4.59 23.5-9.49 49.24-10.14 52.71ZM280 605.12c4.43 7.16 6 8.84 7 15.57-1.72-5.92-5-11.23-5.61-12.48-.48-1-.94-2.03-1.39-3.09Zm6.15 28.74a10.59 10.59 0 0 0 1.58-3.86c-.07 3.1-1.1 4-4.36 8.34.99-1.64 1.93-3.16 2.77-4.48Zm38.9-7ZM271.58 1158a8.49 8.49 0 0 1-1.76-.27c-16.59-5-21.35-12.5-21.78-20.26 4.41 6.7 14.52 16.12 23.54 20.53Z" class="cls-1"/><path d="m651.29 1031.13 10.3-.47-1.5-2-1.47-2-7.52.34c-28 1.31-54.44 2.53-88.35 2.55-1.35-2.12-3.5-11.5-6.14-30.93l-1.9 1.32-1.91 1.33c2.38 16.81 4.89 29 7.23 31.43a2.89 2.89 0 0 0 2.11 1c34.3-.02 60.94-1.26 89.15-2.57ZM584 400.3l.76-1.27c4.27-7.22 7.12-10.15 9.93-10.15a4.53 4.53 0 0 1 .52 0 1.55 1.55 0 0 1 .31.07c-1.17-11.19 1.06-19.46 6.22-21.36l1.42 3.86c-2.32.85-4.39 6.08-3.73 15.21.05.76.12 1.53.22 2.34s.19 1.52.31 2.32c.34 2.17.79 4.49 1.43 7 .22.73.44 1.48.67 2.28 1.59 5.43 3.57 12.2 7.13 17.87 15.3 24.33 28.6 34.24 44.45 44.35l1.85 1.17 1.84 1.16 2.14 1.35c10.63 6.66 22.68 14.21 37.09 26.4 17.1 14.46 38.38 21.5 58.37 19.32 17.61-1.92 32.91-10.81 44.27-25.69 13.48-17.68 15.54-48.33 4.68-69.78-24.35-48.13-58.18-47-109.38-45.4l-1.75.05c-7.47.25-16.12-3.69-26.09-8.25-13.21-6-29.65-13.53-49-13.53-15.3 0-32 9.81-39.6 23.33-4.75 8.4-8.25 21.72.28 38.93A55.45 55.45 0 0 1 584 400.3Z"/><path d="M207.86 600.13c-2.17 6 1.24 13.41 2.8 16.29 1.32 2.42 2.35 3.51 3.37 4.05.05.76.09 2.07.14 3.7v.69c.09 2.84 2.5 4.85 5.06 7 2.35 2 4.78 4 5.35 6.52.7 3.17 10.87 13 15 15.21.87 1.64 1.77 3.31 2.7 5 4.79 8.84 9.05 12.92 13.8 13.23h.53c6.17 0 11.62-6.83 17.12-14.45.36-.48.72-1 1.09-1.55a3 3 0 0 0 .66 0c6.81-.74 15.92 1.46 23.24 3.23a65.88 65.88 0 0 0 10.27 2c-6.48 18.07-5.46 20.57-5 21.72a2.86 2.86 0 0 0 1.74 1.68c36.87 12.23 44.37 14.12 116.13 32.15l3 .75c16.73 4.2 30.53 6.81 42.68 6.81 16.76 0 30.4-4.95 44.32-17.5 10.56-9.51 21.07-19.28 31.33-28.85-1.06 44.52-1.27 94.62-1.43 132.94v9.07l2.06-1.72c.7-.58 1.38-1.15 2.06-1.7v-5.64c.08-18.78.17-40.41.37-62.82 8 .07 15.89.3 23.89.68-2.74 23.3-4.65 44.05-4 52.47l1.17-.69c.25-.14.52-.28.81-.41a19.71 19.71 0 0 1 2-.84c-1-25.93 16.61-141.8 16.8-143l.17-1.16-.91-.74a105.52 105.52 0 0 1-8.88-8c-1-1-1.92-2-2.8-3-17.78-20.17-12-36.28-6.29-51.94 1.16-3.19 2.35-6.5 3.32-9.76 6-20.29 8.87-28.37 17.6-46.12 2.36-3 5.52-4.11 9.22-4.28-2.73 8.44-3 18.28-.64 28.7 2.52 11 7.14 28.52 13.25 50.55.42 1.51.84 3 1.28 4.6 12.9 46.28 31.85 110.68 51.57 175l.62 2c.17.56.34 1.12.52 1.68 0 .12.07.23.1.35-5.06.21-11.48.47-18.6.81-13.07.63-28.51 1.52-42.27 2.8-11.23 1.05-21.33 2.35-28.1 4a27.85 27.85 0 0 0-6.77 2.33l-.39.22c-4.82 2.8-12.83 8.94-23.1 17.51l-2.06 1.72-2.06 1.74c-34.9 29.55-91.7 82.75-138.82 128.15-76.86 74.08-136.36 135.24-140.18 144 1.71 2.22 3.7 4.63 5.91 7.15L270 1106l1.39 1.53a268.9 268.9 0 0 0 35.6 32.5l1.71 1.26c.59.42 1.16.83 1.74 1.23 9.93 7 18.57 11 23 9.2 12.6-5.18 63.64-42.54 117.67-82.09 40-29.31 74.25-54.22 101.06-72.91l1.93-1.35 1.9-1.32c26.62-18.46 45.44-30.35 54.76-33.72-2.34-4.62-5-9.86-7.63-15.23-6.63-13.28-14.89-29.81-16.3-31.43a1.59 1.59 0 0 0 .61.39l1.46-3.83c1.4.53 2.32 1.84 17.9 33 2.77 5.55 5.57 11.17 8.06 16.07h.24a4.68 4.68 0 0 1 .67 0 3.36 3.36 0 0 1 2.29 1.37c7.44 10.6 14 20.26 20.29 29.6 8.94 13.21 17 25.1 25.23 36.08l1.5 2 1.52 2c39.27 50.86 86.13 82.66 256.49 139.17.66-1.29 1.74-3.38 3.22-6.23.29-.57.61-1.19 1-1.82s.61-1.18.94-1.8c3.88-7.41 9.66-18.31 17.31-32.35.33-.59.66-1.2 1-1.81l1-1.81 3.65-6.66c-2.82-2.51-10.49-7.42-19.89-13.44-25.29-16.19-66.93-42.87-100.26-75.92h5.85l187.55-1.56-.82-2.64c-6.8-21.77-85.68-164.93-166-290.21v-1.53h-1c-13.39-20.86-26.81-41.2-39.93-60.39 27.67 10.77 55.48 20.77 82.44 30.45 41.41 14.88 77.17 27.73 101 39.32a3.07 3.07 0 0 0 2.85-.12c1.05-.63 2.86-1.71 5-13.08 12.19 1.19 18.45 8.39 24.49 15.38 5.75 6.64 11.28 13 21 13 3.81 0 8.25-1 13.6-3.33l1.51-.69c1.06-.5 2.15-1.05 3.28-1.65.83.26 1.66.52 2.51.76a203.85 203.85 0 0 0 21.46 4.76c4.77.83 9.54 1.57 14.26 2.3 5.21.79 10.3 1.58 15.18 2.46 2 .37 4 .75 6 1.16l2 .44 2 .46c3.27.78 6.39 1.65 9.32 2.66l1.12.4.49.17.09-.24.31.11c.56.19 1.13.37 1.68.57l-1.43 3.84-1.43-.51-1-.34-.94-.31c-2.94-.93-6-1.75-9.29-2.48l-2-.44-2-.41q-1.14 3.86-2.43 7.61c-10-2.7-26.28-9.07-38.39-14.51a165.68 165.68 0 0 1-17.3-4.33l.83.56c7.43 5 37.47 17.75 53.51 22.16-1.7 4.77-3.53 9.48-5.39 14.28-4.92 12.73-10 25.88-14.18 42.69l-1.4 5.63.85-.65c0 .14 0 .27.06.4.61 2.65 3.8 3.53 6.5 4 19.46 3.35 52.4 11.72 87.27 20.59 47.28 12 96.17 24.43 112.64 24.43 3.83 0 23.53-11.35 26-15.72a2.78 2.78 0 0 0 .11-2.89 2.91 2.91 0 0 0-.38-.46c5.17-9.15 11.27-32.29 19.7-68.16l.15-.67c6.89-.26 13.94-.43 20.92-.61 21.53-.54 43.79-1.09 60.64-3.95l-.68-4c-16.56 2.8-38.68 3.36-60.06 3.89-6.61.17-13.29.33-19.84.57 1.41-6 2.5-10.46 3-12a134.39 134.39 0 0 0 4-15.65c9.54-.41 18.61-1.21 22.73-2.52l-1.25-3.91c-3.55 1.13-11.75 1.88-20.65 2.3 3.35-17.37 6.23-40 8.87-60.67 3.13-24.61 6.09-47.85 8.87-53.71a3 3 0 0 0-.09-2.82c-1.72-3.09-9.47-4.27-25.53-6.06-6.12-.68-11.91-1.33-14.21-2.06-10.3-3.3-138.09-24.42-160.43-25.89v-.33l-2.17.25h-.07c-.21 0-.41.06-.61.09-7.57 1.06-13 5.17-17.8 8.82-1.19.91-2.32 1.77-3.47 2.58-8.28 5.83-9.65 24.94-9.21 34.22.05 1.16.05 2.41 0 3.68-29.67-5.17-87.37-9.82-100.86 12.26a20 20 0 0 0-3.8 3.67c-.35.44-.68.89-1 1.34-3-.18-6.06-.31-9-.43-7.63-.32-14.84-.62-19.36-1.73a6.26 6.26 0 0 0-1.59-.07h-2.53c.43-6.55.65-10.93.66-11l.08-1.57-1.49-.49c-29.91-9.78-155-62.77-246.62-105.25h.1-.13c-37.48-17.39-69.33-33-86.73-43.2-12.88-7.54-25.62-11.73-37.2-12.52 1-6.49 2.71-12.82 6-17a55.92 55.92 0 0 0 8.48-17.58v-.18l-1.83-1.16-1.83-1.15c-16.83-10.66-30.78-20.69-47-46.41-3.87-6.16-5.94-13.23-7.6-18.91-.65-2.23-1.45-5-2.22-6.82a5.58 5.58 0 0 0-1.07-1.85.68.68 0 0 0-.18-.13c-.1 0-1.76.37-6.36 8.15l-.77 1.29c-1.21 2-2.49 4.19-3.6 6.51-.09.38-.19.76-.27 1.15-.79 3.94-1.84 8.07-3 12.25l-.18 1.57-.18-.3c-1.06 3.77-2.2 7.56-3.33 11.31-3.33 11-6.48 21.46-7.35 30.11-1.79 17.6 4.59 27.27 14.71 36.37 3.54 3.19 3.4 7.25 3.26 11.26a51.91 51.91 0 0 1-1.09 7.33c-10.77 2.55-21.42 10.44-29.62 22.55-18.5 27.32-58.59 78.19-87.36 98.34-13.2 9.26-24 13.7-40.15 9-3.07-.89-11.14-3.42-21.36-6.63-14.69-4.61-34.83-10.93-51-15.76-30.16-9-30.5-8.36-31.51-6.41-.18.35-.39.78-.63 1.28-.49-.2-1-.39-1.57-.6a23.85 23.85 0 0 1-3.82-1.65l-.91-.59c-13.12-8.49-14.49-9.38-24.05-23.95-6.61-10.11-15.46-12.57-22.21-12.81-5.34-11.76-10.86-23.66-15.18-31.76-2.51-4.7-6.61-10.5-11.91-11.41a8.64 8.64 0 0 0-7.52 2.48c-.69.63-2 1.66-3.56 3-6 4.89-16 13.06-21.66 20.92-7.49 10.36-4.61 19.59-.5 29.14a9.6 9.6 0 0 0-4.06 5Zm301.22 103.5c-22.79 20.53-44.1 19.6-83.26 9.76l-2.95-.74c-71.17-17.89-79-19.87-115.14-31.84-.15-2 1.18-6.86 3.26-13 13.41.77 53.69 1 100.27 1.19 45.07.22 97 .47 132.08 1.34v1.79c-11.22 10.38-22.73 21.1-34.26 31.5ZM944.82 643a25.78 25.78 0 0 1-4.27.39c-17.76-.71-35.06 1.43-51.78 3.5-5.87.73-11.95 1.48-18 2.1-25.65 2.65-51.72 4-77.58 4.87-5.51-2.72-11.93-5.78-18.77-9-18.42-8.53-41.59-18.56-48.92-20.45l-1 4c8.08 2.08 37.73 15.11 59.88 25.71-10.9.33-21.76.6-32.52.86l-20.53.51-2.35.07-2.35.06c-12.09.34-24.25.74-36.44 1.29l-2.12.1-2.13.11c-18.77.9-37.57 2.19-56.19 4.18-5.28-18.19-10.08-35-14.22-49.87-.44-1.59-.88-3.16-1.31-4.7-5.26-19-9.35-34.39-11.83-44.78 4.48.56 12.39 1 21.63 1.42l4.71.18c3.89.15 7.94.28 12 .4l3.74.11 4 .1 1.83.05 2.27.06h2.3c14.68.34 27.3.52 30.45.56 13.13.18 25.77.26 37 .26 6.65 0 12.81 0 18.3-.09 14.85-.17 21.47-.5 24.57-.9C822.64 590.78 893 621.41 944.82 643Zm64.84 25.62c-.19 3.57-.4 7.17-.63 10.75l-4.79 46.49c-1 5.81-2 9.87-3 11.31-12.09-5.83-27.11-12-44.28-18.5 10.9-3 35.83-5.16 45.68-5.16v-4.1c-7.9 0-42.24 2.28-51.46 7.07-15.48-5.81-32.56-12-50.72-18.48-28.4-10.2-57.75-20.75-86.85-32.18-.59-1.23-3.08-3.08-12.44-7.95l-.36-.18c23.48-.88 47.1-2.21 70.41-4.62 6.07-.62 12.17-1.38 18.07-2.11 17.32-2.15 33.67-4.17 51.11-3.47a43.62 43.62 0 0 0 11.08-1.73c26.42 10.9 47.35 19.16 58.18 22.83Zm-219.5 268.74a145.43 145.43 0 0 1-5.64-22c-1.1-5.89-15.53-54.14-18.74-64.86 7.39-1.56 28.15-3.06 49.21-3.5 33.32-.68 45.14 1.49 47 2.82.84 3.15 4.73 11.74 10.06 23.49 8 17.73 19.07 42 25 59.84l.09.29c.47 1.41.89 2.77 1.28 4.09 3.93 13.36 4 22.6.15 28.15-2.87 4.15-8 6.32-15.58 6.62-53.07 2.1-78.08 1.11-91.25-30.86-.57-1.33-1.08-2.68-1.58-4.08Zm110.75-5.55c-6-18-17.09-42.42-25.17-60.23-5-11-9.32-20.54-9.88-23a3.84 3.84 0 0 0-2.09-2.46c-11.58-6.38-91.49-2.47-101.25 1l-1.84.65.56 1.87c.18.6 18.08 60.18 19.24 66.46a150.24 150.24 0 0 0 5.45 21.44l-4.3.15-2.18.07-2.15.08-7.21.22-2.09.06-2.11.06c-15.84.45-31.74.73-48 .73V943c16.66 0 32.9-.3 49.08-.76l2.11-.06 2.09-.06 7.62-.24 2.15-.07 2.16-.08 4.37-.15c5.7 14.35 13.62 23.34 24.76 28.63s25.45 6.86 43.86 6.86c8.16 0 17.15-.3 27.07-.69 8.87-.35 15.19-3.18 18.79-8.39 4.45-6.44 4.69-16.46.74-30.51 15.13-.1 31.53 0 46.75.07 9.14.05 17.78.1 25.36.1 23.17 41.71 39.3 73 43.88 84.46l-186 1.55H826.99l-22.6.19h-4.88l-52.2.43c-10.78-20.83-36.95-99.29-64.32-186.76 13.45-1.76 27.3-2.62 41.16-3.11l2.46-.08 2.45-.08q4.72-.14 9.45-.23l2.11-.05h2.12l10-.17c19.89-.34 40.47-.68 60.59-2.63 14.18-1.37 32.24-.73 49.71-.11s35.72 1.26 49.92-.15v-.43c22.28 37.24 42.69 72.71 59.58 103-7 0-14.83 0-23.06-.09-15.64-.09-32.52-.17-48-.06-.24-.48-.39-.99-.57-1.52ZM910.8 827c-13.67 1.18-30.92.57-47.64 0-17.6-.63-35.8-1.27-50.25.13-20 1.93-40.44 2.27-60.26 2.6l-11.06.2h-4.23q-5.58.12-11.17.3l-2.47.08-2.48.09c-13.3.52-26.58 1.41-39.52 3.14-3.73-11.93-7.48-24-11.2-36.13-.21-.68-.42-1.35-.62-2s-.33-1.06-.49-1.59c0-.14-.09-.28-.13-.43-.17-.53-.33-1.06-.49-1.59-.21-.68-.42-1.35-.62-2-5.17-16.8-10.3-33.69-15.27-50.23a180.25 180.25 0 0 1 20.81-2q-2.12 1.63-2.71 6.43c-.33 2.81 1.44 10.86 5.48 13a4.79 4.79 0 0 0 2.21.57 5.2 5.2 0 0 0 3.43-1.42c3.59-3 2.67-8.89.79-13-1.08-2.34-2.75-4.71-4.73-5.77 9.39-.45 20.5-.78 32.53-1l2.13-.05h2.13c14.23-.26 29.58-.41 44.8-.49H764c28-.12 55.16 0 73.46 0l16.9.06c19.41 30.24 38.51 61.2 56.44 91.1Zm-230.88-80.3c.7 2.26 1 5.1-.44 6.29-.65.56-.88.44-1 .35-1.93-1-3.57-7-3.34-8.92.3-2.51.86-3.31 1-3.51.71.23 2.67 2.27 3.78 5.8Zm157.54-15c-19.58-.07-46.67-.18-74.26-.06h-4.26c-15.42.08-30.88.24-45.17.52h-4.26c-26.78.57-48.86 1.59-57.8 3.36-7.38-24.58-14.42-48.39-20.8-70.34 18.66-2 37.52-3.25 56.36-4.14l2.13-.1 2.12-.1c12.53-.56 25-1 37.47-1.3l2.34-.06 2.34-.07 18.28-.45c13.33-.33 26.81-.66 40.36-1.11 7.34 3.62 13.14 6.68 16 8.49l1.2 1.75c14 20.34 28.21 41.75 42.25 63.56ZM652.81 560.15l-2.32-.06-2.29-.09-6.09-.17-3.5-.1-3.36-.11c-3.13-.1-6.12-.21-8.94-.32l-5.37-.22c-9.68-.43-16.72-.91-19.51-1.42-2-9.69-1.56-18.77 1.19-26.44.24-.67.51-1.33.79-2s.58-1.32.9-2c.26-.52.51-1 .8-1.55 0-.1.11-.2.17-.3l.07-.11c.32-.56.67-1.11 1-1.65a2.26 2.26 0 0 0 .16-.26c.27-.39.56-.76.84-1.15l.5-.67a32.21 32.21 0 0 1 6.45-6.32c6.34-4.65 14.16-7 22.89-7.13h2.06c.68 0 1.37.05 2.06.1 11 .69 23.22 4.71 35.65 12 16.46 9.63 45.81 24.12 80.62 40.36-19.19.88-66.86.53-104.77-.39Zm-71.87 108c-5-.65-13.91-1.15-25.69-1.56l-5.82-.18-1.88-.05c.14-4.85.29-9.62.45-14.26.18-5.27.29-10.77.41-16.6.32-15.79.68-33.13 2.58-49.31 5.24 0 10.48 0 14.65.05l-1.32 3.7C558.48 606 552 624 571.43 646c.88 1 1.81 2 2.8 3a103.52 103.52 0 0 0 8.42 7.7c-.3 1.93-.9 5.93-1.71 11.4Zm-13.39-87.74q-.25.87-.54 1.74c-4-.06-9.67-.12-15.5-.1 3.08-22.6 9.52-42.4 23.63-51.71a33.37 33.37 0 0 1 10.1-4.42c-1.26 5.92-1.79 8.76-1 10.21-7.98 16.28-10.91 24.65-16.69 44.23Zm-21.32 163.5c.22-23.38.56-47.46 1.12-70q0-1.77.09-3.51l3.57.1c13.78.41 24.17.94 29.34 1.63-2.56 17.57-6.63 46.21-9.78 72.43-8.16-.39-16.16-.63-24.34-.7Zm766.48 140.95c-16 0-64.6-12.36-111.63-24.31-34.95-8.88-68-17.27-87.58-20.66a8.82 8.82 0 0 1-3.11-.93c.66-1.41 4.92-4.48 8.08-6.76 4.15-3 8.76-6.33 12.24-10 6.32 4.83 30.12 10.61 70.13 19.16 8.81 1.88 15.77 3.36 17.59 4 8 2.63 27.61 7 48.37 11.64 25.81 5.76 61.14 13.65 64.33 16.53a3.69 3.69 0 0 0 .94.61c-5.69 4.08-17.17 10.51-19.36 10.67Zm46.15-238.88c7.31.81 19.25 2.14 22.05 3.76-2.94 7.27-5.72 29.1-8.92 54.23-2.68 21-5.62 44.05-9 61.35-9.84.34-19.79.27-24.72-.16l-.36 4.08c2.75.25 7.43.38 12.91.38 3.55 0 7.42-.06 11.33-.18a125.88 125.88 0 0 1-3.71 14.17c-.62 1.79-1.79 6.66-3.4 13.48a296.91 296.91 0 0 0-32.94 2.8l.65 4a285 285 0 0 1 31.32-2.71c-2.91 12.37-6.85 29.12-10.81 43.14-4.61 16.3-7.45 22.37-8.91 24.63h-2.77c-7.55-3.42-30-8.57-63.87-16.13-20.67-4.61-40.18-9-48-11.53-2-.67-8.73-2.1-18-4.09-12.27-2.61-29.06-6.2-43-9.75-20.35-5.19-24.73-7.81-25.67-8.73 4-16.69 9.21-31.07 14.73-46.28 6.89-19 14-38.64 18.71-63.41 1.19-6.29 5.8-30.37 10.08-52.39 4.2-17.75 7.37-32.4 8-38.69 21.87 1.45 150.35 22.84 159.28 25.69 2.7.91 8.41 1.55 15.02 2.29Zm-255 17a284.27 284.27 0 0 1 47.23 4.35v.05l2 .36 2 .37 1.31.25c3.32.69 6.12 1.36 8.22 2v-.14c.64.17 1.23.33 1.76.49l-1.16 3.93c-2.58-.75-6.21-1.6-10.59-2.45l-2-.37-2-.36c-.5 4.24-1.28 8.82-2.23 13.58-6.1-.94-14.21-3.07-23.43-5.49-16-4.19-34-8.94-49.3-9.59a48.85 48.85 0 0 0-13.66 5c16.26-3.45 41.89 3.27 61.92 8.53 9.22 2.42 17.34 4.56 23.63 5.55-1.85 8.62-4.14 17.64-6.31 26.18-2.94 11.52-5.47 21.47-6.35 28.26a139.56 139.56 0 0 1-2.74 14.73c-6.79-1.44-14-2.57-21.55-3.72-11.86-1.82-24.08-3.71-35.48-7a3.48 3.48 0 0 0 0-1.47l-2.13-.07-2.11-.1h-1l-3.31-.2c-1.65-.12-3.3-.24-4.92-.38l-1.81-.17h-.27c-1.69-.16-3.3-.34-4.79-.52-3.86-.47-6.83-1-7.78-1.48l1.88-3.65a13.45 13.45 0 0 0 2.41.53c.83.13 1.83.27 3 .41l1.1.13 1.63.18 4.21.42h.47c3.58.32 7.41.59 10.82.76l2.9.12c1.28 0 2.46.06 3.47.06.64-.41 1.37-.86 2.23-1.37 4.29-2.5 3.39-6.69 2.59-10.38s-1.75-8.09 1.28-12.81c3.71-5.79-8-26.81-8.15-27-3.37-5.57-11.89-7.95-21.8-9.12-.84-.1-1.7-.19-2.56-.27a2 2 0 0 1 .07-.23 14.85 14.85 0 0 1 1.06-2.45 19.46 19.46 0 0 1 7-7.16l.44-.24h-.1c10.44-6.48 27.97-8.03 42.91-8.03ZM553.62 554.32a141.17 141.17 0 0 0-6.23 27.7c-5.69.06-11.21.2-15.22.49 8.03-9.98 15.38-19.72 21.45-28.19ZM328.6 624c7.87 1.09 55 15.89 78.17 23.16 10.24 3.21 18.32 5.75 21.44 6.65 17.64 5.09 29.78.1 43.65-9.62 17.24-12.08 38.42-34.92 56.72-57.28 2-.46 9.77-.69 18.29-.77-1.88 16.23-2.24 33.46-2.56 49.2-.12 5.81-.23 11.3-.41 16.53-.16 4.66-.31 9.44-.45 14.3-34.52-.87-85.27-1.12-132.17-1.35-45.25-.22-84.55-.41-98.9-1.12 3.74-10.55 9-23.47 12.84-32.29a22 22 0 0 1 1.44-2.55 3.74 3.74 0 0 0 .36-.64 2.73 2.73 0 0 0 1.57-2.31 2.33 2.33 0 0 0-.3-1.26c.11-.19.21-.42.31-.65Zm-112.86-55.64c5.37-7.42 15.11-15.38 20.93-20.14 1.65-1.35 3-2.42 3.74-3.13a5 5 0 0 1 3.37-1.52 4 4 0 0 1 .68.06c2.82.48 6.1 3.87 9 9.3 4.09 7.66 9.29 18.78 14.39 30l-.8.1c-7.72 1.1-15.49 5.25-16.61 8.89-1.18 3.82-1 6.65.6 8.67 2.71 3.44 8.32 3.09 14.26 2.71 5-.32 10.77-.68 12.33 1.87l.55.89 1.31 3c.16.36.42.84.82 1.57a55.62 55.62 0 0 1 4.69 10.62c.15 1.11.28 2.35.41 3.82a47 47 0 0 1 .28 4.76 8.55 8.55 0 0 1-1.22 2.88c-.83 1.3-1.77 2.82-2.75 4.43-.68.9-1.45 1.94-2.35 3.19l-.6.82c-4.28 5.84-6.21 9.07-6.51 11.21-.62.93-1.23 1.81-1.79 2.59-5.65 7.83-10.21 13-14.07 12.74-3.1-.2-6.52-3.83-10.45-11.1-1-1.92-2-3.77-3-5.59l-26.51-55.8c-4.31-9.76-7.31-17.68-.7-26.84ZM188.06 542.91l1.34-3.91c-3-1-6.81-3.33-10.88-5.77s-8.48-5.08-12.22-6.47l-1.43 3.84c3.39 1.26 7.53 3.75 11.54 6.15 4.26 2.59 8.28 5 11.65 6.16ZM221 515.15l.09.12c-.67-1-6.58-13.09-7.29-14.65l-3.8 1.72c.06.14 6.95 14.44 7.77 15.43ZM255 511.67c2.78-5.54 4.93-9.93 5.21-11.95l-4.07-.56c-.2 1.51-3.2 7.47-4.81 10.67-.79 1.57-1.47 2.94-1.84 3.75l3.74 1.68c.34-.73 1.01-2.06 1.77-3.59Z"/><path d="M282.48 540c3.63-2.27 8.6-5.39 9.93-6l-1.73-3.72c-1.45.67-5.22 3-10.38 6.26-2.3 1.44-4.47 2.8-5.44 3.36l2.05 3.55c1.03-.61 3.14-1.93 5.57-3.45ZM645.9 618.59a6.69 6.69 0 0 0-7.8 1.66c-2.09 2.57-1.75 6.48.91 10.45 3.11 4.65 7.1 6.81 10 6.81a5.06 5.06 0 0 0 1.2-.14 3.29 3.29 0 0 0 2.58-2.91c.95-11.78-5.03-15.13-6.89-15.87Zm2.82 14.81c-1.13-.14-3.82-1.26-6.3-5-1.89-2.82-1.83-4.74-1.14-5.59a2.68 2.68 0 0 1 3.09-.44c2.38.98 4.73 4.37 4.35 11.03ZM658.21 678.92c-3.34.82-3.86 5.73-4 7.34-.22 2 .08 9.9 5.5 11.46a9.1 9.1 0 0 0 2.55.39 4.92 4.92 0 0 0 4.18-2c2.54-3.49.3-10.07-2.1-13.63-2.59-3.78-4.95-3.86-6.13-3.56ZM663 693.8c-.29.29-1.14.29-2.22 0-2.37-.69-2.69-5.83-2.55-7.08a8.24 8.24 0 0 1 1-3.72c.85.43 2.69 2.79 3.69 6.1.81 2.7.51 4.29.08 4.7ZM704.9 810a24.92 24.92 0 0 0-1.38-3.21c-1.27-2.43-3.3-5.13-6.12-5.31h-.35a4.42 4.42 0 0 0-2.25.65c-1.69 1-3.06 3.18-4.09 6.5-.63 2 1.11 11.37 3 12.67 2.69 1.89 5 2.83 7 2.83a5 5 0 0 0 3.05-1c3-2.22 2.79-7.35 1.63-11.62-.18-.51-.33-1.04-.49-1.51Zm-3.64 9.84c-.43.32-2 .31-4.93-1.72-.67-1.46-1.88-7.05-1.69-8.34 1.08-3.43 2.17-4.22 2.47-4.22.66 0 2.53 1.73 3.91 5.77 1.54 4.51 1.13 7.83.24 8.5ZM156.73 1170.42c4.83 4.25 10.23 9.24 15.94 14.52 17.64 16.29 37.62 34.76 56.24 46.17a76.24 76.24 0 0 1 8.51 6.09c2.88 2.3 5.05 3.89 7.34 3.89 2.1 0 4.3-1.35 7.25-4.73a73.51 73.51 0 0 1 5.92-5.93c3.27-3 5.43-5 5-7.5a3.39 3.39 0 0 0-.33-1c3.16-2.52 9.08-8.9 21.27-24.87 2.64-3.45 19.35-25.76 19.59-27.08.76-4 .06-7.34-2.06-9.76s-5-3.5-8.45-4.12c4.17-2.91 9.32-6.74 14.26-10.86l-1.73-1.24-1.71-1.27c-12.72-9.54-26.11-22.39-35.51-32.59l-1.38-1.52-1.38-1.53a157 157 0 0 0-11.69 11.19 23.26 23.26 0 0 0 .46-2.82l.06-1-.65-.67c-1-1-1.52-1.58-46.82.93l-3.56.2-1.17-.46-.38-.11c-6.95-1.28-31.64-14.19-44.91-21.13-9.54-5-9.6-5-10.31-5-10.62-.49-16.58 0-20 2-7.74 3.06-14 10.67-16.14 16.72-1.13 3.13-1.17 5.76-.11 7.62 6.5 11.24 23.51 35.67 46.45 55.86Zm-10.66-78.11c1 .45 4.86 2.46 8.91 4.58 18.45 9.65 38.7 20 45.87 21.49l1.82.71h.44l4-.22c23.6-1.31 38-1.91 42.8-1.81-.33 1.71-.88 3.62-1.45 5.61-.3 1-.61 2.15-.91 3.29a36.27 36.27 0 0 0-1.49 12.26c.7 8.15 5.9 16.32 23.15 21.48a9.79 9.79 0 0 0 1.83.31 42.66 42.66 0 0 0 5.86 0l1.47-.07c1.66-.09 3.46-.18 5.3-.22h4c4.51.17 8.68.94 10.69 3.24 1.21 1.38 1.6 3.32 1.18 5.92-4.05 6.14-34.85 48.33-40.43 50.55-8-1-34.85-20.53-67.19-48.81-31.24-27.31-56.94-53.49-61.12-62.25-2.55-5.34-4.94-11.12-3.36-13.5 1.43-2.15 6.74-2.7 12.54-2.7 2.02-.02 4.1.05 6.09.14Zm-31.76 16a27.36 27.36 0 0 1 8.53-11.23c.07 3.43 1.73 7.73 4.25 13 5.21 10.91 35.86 40.6 62.13 63.57 12.89 11.26 55.59 47.8 69.25 49.76a3.29 3.29 0 0 1 .35.19 26.63 26.63 0 0 1-3.67 3.78 74.85 74.85 0 0 0-6.24 6.25c-2 2.31-3.32 3.39-4.24 3.32s-2.63-1.35-4.68-3a84 84 0 0 0-8.93-6.39c-18.28-11.19-38.11-29.52-55.6-45.69-5.73-5.29-11.15-10.3-16-14.58-22.53-19.83-39.22-43.79-45.53-54.83-.35-.52-.42-1.93.38-4.14ZM900.09 1273.6c1.6 2.73 5 5.92 12.37 5.6 6-.26 13.1.32 20.57.94 6.71.55 13.72 1.12 20.54 1.12 13.22 0 25.75-2.16 34-10.85 17.72-18.68 23.94-30.58 32.55-47 2.92-5.6 6.23-11.93 10.36-19.19 6.33-11.12 16.28-31.24 11.88-41.07a9.61 9.61 0 0 0-7.11-5.51 11 11 0 0 1-3.74-1.63 8 8 0 0 0-6.38-1.41c-2.06-3-6.47-5.88-13.68-10.33l-1.42-.88c-1.59-1-3.39-2.14-5.33-3.38-17-10.92-31.72-19.56-38.73-14.62a8.2 8.2 0 0 0-3.21 6.17c-3.25-1.87-7.12-3.93-11.53-6-.33.6-.67 1.21-1 1.81s-.66 1.21-1 1.81c-7.66 14.05-13.45 25-17.35 32.39-.33.63-.64 1.24-.95 1.81s-.64 1.25-1 1.83c2.41 1.11 5.14 2.27 8 3.31a4.45 4.45 0 0 0-.42.53c-1.38 2-1.61 8.19-1.61 21.34 0 4.05-4 28.4-5.57 31.07a22.84 22.84 0 0 1-4.78 3.44c-2.11 1.31-5 3.11-8.88 5.91a30.44 30.44 0 0 1-3.34 1.92c-4 2.09-8.95 4.69-10.24 10.85-.14.66-.44 1.69-.76 2.78-.89 3-2 6.61-1.73 9.31-1.9 3.68-3.89 12.13-.51 17.93Zm7.09-29.24c.89-4.27 4.57-6.19 8.12-8.06a31 31 0 0 0 3.84-2.23c3.76-2.71 6.47-4.39 8.64-5.74a29.91 29.91 0 0 0 5.2-3.7c2.58-.41 10.25-1.7 11.26-1.87 12.29-2.07 12.29-2.07 12.83-2.69l-1.62-1.42-.44-1.91c-1 .21-13.68 2.36-19.91 3.39 2.41-8.55 5-27.32 5-29.8 0-5.16 0-17.24.88-19 .43-.62 1.92-.39 4.31 0a21.84 21.84 0 0 0 8.9.31c4.14-.91 8.55-3.88 12.27-11.7a51.65 51.65 0 0 0 2.13-5.24l.29-.86c1-2.75 2-5.69 2-8.44a7.85 7.85 0 0 0-1.85-5.23 9.37 9.37 0 0 0-1.54-1.45c-.17-.8-.31-1.56-.41-2.28a25.81 25.81 0 0 1-.24-2.58c-.08-2.61.44-4.4 1.57-5.2 5.32-3.75 24.07 8.27 34.15 14.72 2 1.26 3.78 2.42 5.39 3.42l1.42.88c7.94 4.9 12.32 7.61 13 10.36s-1.9 7.26-6.6 15.4c-2.41 4.17-5.4 9.36-8.86 15.89l-.25.47c-31.13 58.72-43.47 65.62-47.34 65.86h-.13c-33.61 2.09-51.54 1.24-54.39-.46-.17-1.85.88-5.39 1.59-7.78.3-1.17.61-2.23.79-3.06Zm122.19-84.88a15 15 0 0 0 5 2.13 5.44 5.44 0 0 1 4.22 3.18c2.64 5.88-1.73 19.85-11.69 37.36-4.17 7.32-7.5 13.69-10.44 19.31-8.46 16.18-14.56 27.86-31.89 46.12-11.15 11.76-32.44 10-51.22 8.47-7.61-.63-14.79-1.22-21.09-1-4.23.18-7.15-1-8.65-3.57-2-3.49-1.27-9 0-12.38 2.88 1.06 8.87 1.95 21.61 1.95 8.24 0 19.32-.37 34.18-1.3h.14c10.05-.62 27.11-23.51 50.7-68l.25-.47c3.43-6.47 6.4-11.62 8.79-15.76 4.81-8.34 7.42-13.21 7.24-17a4.36 4.36 0 0 1 2.85.96Z"/></svg>